<svg class="border shadow-md" viewBox="0 0 781.44 781.44" style="width: 781.44px; height: 781.44px;" xmlns="http://www.w3.org/2000/svg" preserveAspectRatio="none"><rect class="bg" id="bg" x="0" y="0" width="781.44" height="781.44" fill="#302a2a"/><path d="M 0 -78.144 L 0 -78.14&#10;                L 77.00 -39.07&#10;                L 156.288 -78.14 L 156.288 -78.14&#10;                L 249.29 -39.07&#10;                L 312.576 -78.14 L 312.576 -78.14&#10;                L 364.67 -4.14&#10;                L 468.86400000000003 -78.14 L 468.86400000000003 -78.14&#10;                L 565.86 -22.14&#10;                L 625.152 -78.14 L 625.152 -78.14&#10;                L 719.15 -39.07&#10;                L 781.44 -78.14 L 781.44 -78.14&#10;                L 833.54 -39.07&#10;                L 937.7280000000001 -78.14  V 781.44 H 0 V -78.14 Z" fill="#684E51"/><path d="M 0 0 L 0 0.00&#10;                L 73.00 69.00&#10;                L 156.288 0.00 L 156.288 0.00&#10;                L 242.29 76.00&#10;                L 312.576 0.00 L 312.576 0.00&#10;                L 364.67 45.00&#10;                L 468.86400000000003 0.00 L 468.86400000000003 0.00&#10;                L 520.96 39.07&#10;                L 625.152 0.00 L 625.152 0.00&#10;                L 700.15 54.00&#10;                L 781.44 0.00 L 781.44 0.00&#10;                L 833.54 39.07&#10;                L 937.7280000000001 0.00  V 781.44 H 0 V 0.00 Z" fill="#5f474a"/><path d="M 0 78.144 L 0 78.14&#10;                L 54.00 147.14&#10;                L 156.288 78.14 L 156.288 78.14&#10;                L 208.38 140.14&#10;                L 312.576 78.14 L 312.576 78.14&#10;                L 364.67 142.14&#10;                L 468.86400000000003 78.14 L 468.86400000000003 78.14&#10;                L 532.86 154.14&#10;                L 625.152 78.14 L 625.152 78.14&#10;                L 677.25 138.14&#10;                L 781.44 78.14 L 781.44 78.14&#10;                L 833.54 117.22&#10;                L 937.7280000000001 78.14  V 781.44 H 0 V 78.14 Z" fill="#564043"/><path d="M 0 156.288 L 0 156.29&#10;                L 52.10 195.36&#10;                L 156.288 156.29 L 156.288 156.29&#10;                L 208.38 195.36&#10;                L 312.576 156.29 L 312.576 156.29&#10;                L 386.58 216.29&#10;                L 468.86400000000003 156.29 L 468.86400000000003 156.29&#10;                L 569.86 225.29&#10;                L 625.152 156.29 L 625.152 156.29&#10;                L 677.25 195.36&#10;                L 781.44 156.29 L 781.44 156.29&#10;                L 833.54 213.29&#10;                L 937.7280000000001 156.29  V 781.44 H 0 V 156.29 Z" fill="#4d393c"/><path d="M 0 234.43200000000002 L 0 234.43&#10;                L 52.10 273.50&#10;                L 156.288 234.43 L 156.288 234.43&#10;                L 264.29 287.43&#10;                L 312.576 234.43 L 312.576 234.43&#10;                L 427.58 275.43&#10;                L 468.86400000000003 234.43 L 468.86400000000003 234.43&#10;                L 520.96 297.43&#10;                L 625.152 234.43 L 625.152 234.43&#10;                L 736.15 273.50&#10;                L 781.44 234.43 L 781.44 234.43&#10;                L 833.54 278.43&#10;                L 937.7280000000001 234.43  V 781.44 H 0 V 234.43 Z" fill="#443235"/><path d="M 0 312.576 L 0 312.58&#10;                L 89.00 354.58&#10;                L 156.288 312.58 L 156.288 312.58&#10;                L 216.29 351.65&#10;                L 312.576 312.58 L 312.576 312.58&#10;                L 364.67 351.65&#10;                L 468.86400000000003 312.58 L 468.86400000000003 312.58&#10;                L 520.96 379.58&#10;                L 625.152 312.58 L 625.152 312.58&#10;                L 741.15 351.65&#10;                L 781.44 312.58 L 781.44 312.58&#10;                L 866.44 351.65&#10;                L 937.7280000000001 312.58  V 781.44 H 0 V 312.58 Z" fill="#3b2b2e"/><path d="M 0 390.72 L 0 390.72&#10;                L 52.10 452.72&#10;                L 156.288 390.72 L 156.288 390.72&#10;                L 208.38 465.72&#10;                L 312.576 390.72 L 312.576 390.72&#10;                L 364.67 448.72&#10;                L 468.86400000000003 390.72 L 468.86400000000003 390.72&#10;                L 520.96 429.79&#10;                L 625.152 390.72 L 625.152 390.72&#10;                L 711.15 429.79&#10;                L 781.44 390.72 L 781.44 390.72&#10;                L 843.44 429.79&#10;                L 937.7280000000001 390.72  V 781.44 H 0 V 390.72 Z" fill="#322427"/><path d="M 0 468.86400000000003 L 0 468.86&#10;                L 110.00 507.94&#10;                L 156.288 468.86 L 156.288 468.86&#10;                L 208.38 507.94&#10;                L 312.576 468.86 L 312.576 468.86&#10;                L 424.58 526.86&#10;                L 468.86400000000003 468.86 L 468.86400000000003 468.86&#10;                L 526.86 507.94&#10;                L 625.152 468.86 L 625.152 468.86&#10;                L 694.15 507.94&#10;                L 781.44 468.86 L 781.44 468.86&#10;                L 892.44 529.86&#10;                L 937.7280000000001 468.86  V 781.44 H 0 V 468.86 Z" fill="#291d20"/><path d="M 0 547.008 L 0 547.01&#10;                L 52.10 586.08&#10;                L 156.288 547.01 L 156.288 547.01&#10;                L 237.29 599.01&#10;                L 312.576 547.01 L 312.576 547.01&#10;                L 384.58 594.01&#10;                L 468.86400000000003 547.01 L 468.86400000000003 547.01&#10;                L 520.96 592.01&#10;                L 625.152 547.01 L 625.152 547.01&#10;                L 677.25 586.08&#10;                L 781.44 547.01 L 781.44 547.01&#10;                L 837.44 615.01&#10;                L 937.7280000000001 547.01  V 781.44 H 0 V 547.01 Z" fill="#201619"/><path d="M 0 625.152 L 0 625.15&#10;                L 95.00 664.22&#10;                L 156.288 625.15 L 156.288 625.15&#10;                L 208.38 693.15&#10;                L 312.576 625.15 L 312.576 625.15&#10;                L 369.58 664.22&#10;                L 468.86400000000003 625.15 L 468.86400000000003 625.15&#10;                L 532.86 698.15&#10;                L 625.152 625.15 L 625.152 625.15&#10;                L 695.15 690.15&#10;                L 781.44 625.15 L 781.44 625.15&#10;                L 846.44 701.15&#10;                L 937.7280000000001 625.15  V 781.44 H 0 V 625.15 Z" fill="#170f12"/><path d="M 0 703.296 L 0 703.30&#10;                L 52.10 742.37&#10;                L 156.288 703.30 L 156.288 703.30&#10;                L 208.38 745.30&#10;                L 312.576 703.30 L 312.576 703.30&#10;                L 397.58 742.37&#10;                L 468.86400000000003 703.30 L 468.86400000000003 703.30&#10;                L 520.96 742.37&#10;                L 625.152 703.30 L 625.152 703.30&#10;                L 717.15 742.37&#10;                L 781.44 703.30 L 781.44 703.30&#10;                L 833.54 742.37&#10;                L 937.7280000000001 703.30  V 781.44 H 0 V 703.30 Z" fill="#0e080b"/></svg>